<svg xmlns="http://www.w3.org/2000/svg" height="20" viewBox="0 96 960 960" width="20"><path d="M564 720h72V612h108v-72H636V432h-72v108H456v72h108v108ZM240 889q-99-36-157.5-121.76T24 576q0-104.719 59-189.859Q142 301 240 263v78q-66 34-105 96.98-39 62.98-39 138Q96 651 135 713.5 174 776 240 811v78Zm360 23q-70 0-131.133-26.6-61.134-26.6-106.4-71.867-45.267-45.266-71.867-106.4Q264 646 264 576t26.6-131.133q26.6-61.134 71.867-106.4 45.266-45.267 106.4-71.867Q530 240 600 240t131.133 26.6q61.134 26.6 106.4 71.867 45.267 45.266 71.867 106.4Q936 506 936 576t-26.6 131.133q-26.6 61.134-71.867 106.4-45.266 45.267-106.4 71.867Q670 912 600 912Zm0-336Zm-.222 264Q710 840 787 763.222q77-76.779 77-187Q864 466 787.222 389q-76.779-77-187-77Q490 312 413 388.778q-77 76.779-77 187Q336 686 412.778 763q76.779 77 187 77Z"/></svg>