<svg xmlns="http://www.w3.org/2000/svg" height="20" viewBox="0 96 960 960" width="20"><path d="M480 960q-79 0-149-30t-122.5-82.5Q156 795 126 725T96 576q0-80 30.5-149.5t84-122Q264 252 335.5 222T488 192q78 0 146.5 27T754 293q51 47 80.5 110T864 538q0 96-67 163t-163 67h-68q-8 0-14 5t-6 13q0 15 15 25t15 53q0 37-27 66.5T480 960Zm0-384Zm-216 36q25 0 42.5-17.5T324 552q0-25-17.5-42.5T264 492q-25 0-42.5 17.5T204 552q0 25 17.5 42.5T264 612Zm120-144q25 0 42.5-17.5T444 408q0-25-17.5-42.5T384 348q-25 0-42.5 17.5T324 408q0 25 17.5 42.5T384 468Zm192 0q25 0 42.5-17.5T636 408q0-25-17.5-42.5T576 348q-25 0-42.5 17.5T516 408q0 25 17.5 42.5T576 468Zm120 144q25 0 42.5-17.5T756 552q0-25-17.5-42.5T696 492q-25 0-42.5 17.5T636 552q0 25 17.5 42.5T696 612ZM480 888q11 0 17.5-8.5T504 864q0-16-15-28t-15-50q0-38 26.5-64t64.5-26h69q66 0 112-46t46-112q0-115-88.5-194.5T488 264q-134 0-227 91t-93 221q0 130 91 221t221 91Z"/></svg>