<svg xmlns="http://www.w3.org/2000/svg" height="20" viewBox="0 96 960 960" width="20"><path d="M480 960q-78.72 0-148.8-30.24-70.08-30.24-122.4-82.56-52.32-52.32-82.56-122.4Q96 654.72 96 576q0-80 30.5-149.5t84-122Q264 252 335.5 222t152.755-30q77.386 0 146.065 27Q703 246 754 293t80.5 110Q864 466 864 538q0 96-67.083 163Q729.833 768 634 768h-67.759Q558 768 552 773t-6 12.667Q546 801 561 811q15 10 15 53 0 37-27 66.5T480 960ZM264 612q25 0 42.5-17.5T324 552q0-25-17.5-42.5T264 492q-25 0-42.5 17.5T204 552q0 25 17.5 42.5T264 612Zm120-144q25 0 42.5-17.5T444 408q0-25-17.5-42.5T384 348q-25 0-42.5 17.5T324 408q0 25 17.5 42.5T384 468Zm192 0q25 0 42.5-17.5T636 408q0-25-17.5-42.5T576 348q-25 0-42.5 17.5T516 408q0 25 17.5 42.5T576 468Zm120 144q25 0 42.5-17.5T756 552q0-25-17.5-42.5T696 492q-25 0-42.5 17.5T636 552q0 25 17.5 42.5T696 612Z"/></svg>