<svg xmlns="http://www.w3.org/2000/svg" height="20" viewBox="0 96 960 960" width="20"><path d="M447 768h64l14-56.308Q539 707 551.5 700.5T575 684l55 16 32-55-41-38.519q2-13.481 3-29.981t-2-29.5l40-38-32-55-54 15q-11-10-24-17t-27-12l-13-56h-65l-12 56q-14 5-27 12t-24 17l-54-16-32 56 41 38q-3 14-3 29.5t3 29.5l-41 39 32 56 55-17q11 9 23.5 16t26.5 12l12 56Zm32.788-120Q450 648 429 626.788q-21-21.213-21-51Q408 546 429.212 525q21.213-21 51-21Q510 504 531 525.212q21 21.213 21 51Q552 606 530.788 627q-21.213 21-51 21ZM216 912q-29.7 0-50.85-21.15Q144 869.7 144 840V312q0-29.7 21.15-50.85Q186.3 240 216 240h528q29.7 0 50.85 21.15Q816 282.3 816 312v528q0 29.7-21.15 50.85Q773.7 912 744 912H216Zm0-72h528V312H216v528Zm0-528v528-528Z"/></svg>